<?xml version="1.0" encoding="utf-8" ?><svg xmlns="http://www.w3.org/2000/svg" xmlns:xlink="http://www.w3.org/1999/xlink" width="465" height="371" viewBox="0 0 465 371"><path fill="white" d="M397.316 70.8833L398.645 70.9815C401.658 73.349 396.923 109.158 396.136 114.495C392.22 140.527 386.078 166.175 377.776 191.156C374.507 201.036 370.072 213.509 365.672 222.981C370.955 222.96 381.687 223.146 386.562 223.883C381.492 224.61 370.109 224.639 364.822 224.439C363.995 228.02 357.098 241.827 355.159 245.632C345.196 265.484 333.093 284.187 319.065 301.409C309.679 312.752 299.596 323.087 288.114 332.302C286.884 333.288 285.662 334.406 284.469 335.442C282.337 333.918 277.66 329.082 275.656 326.921C256.507 306.27 240.828 279.946 230.411 253.849C228.681 249.524 227.045 245.162 225.504 240.766C224.657 238.354 222.084 229.866 220.919 228.254C217.984 227.75 210.732 228.101 207.527 228.184C198.218 228.427 188.802 229.193 179.479 229.36C163.273 229.651 147.08 229.204 130.885 230.198C126.074 230.494 120.101 230.495 115.435 231.149C113.953 232.899 112.035 236.122 110.741 238.181C108.302 242.063 105.883 245.958 103.484 249.864C93.5604 266.029 84.2654 282.57 75.6195 299.453C70.7126 309.124 66.2281 319.308 61.3887 328.731C60.6237 328.646 57.9317 328.496 57.9135 327.586C57.8103 322.421 60.612 315.07 62.2321 310.202C64.4678 302.532 67.529 294.445 70.5953 286.947C99.6398 215.938 147.19 154.25 198.231 97.7221C204.15 91.1673 210.767 85.0537 216.562 78.3358C218.296 76.3255 220.975 73.2034 223.184 71.8436C222.312 77.5002 222.487 83.7943 222.386 89.5597C222.17 98.7022 222.24 107.849 222.597 116.987C222.931 125.173 223.727 133.286 223.742 141.525C223.748 145.252 224.709 149.757 225.017 153.563C226.55 172.489 230.181 191.337 234.7 209.763C235.157 211.62 236.529 218.339 237.796 219.476C240.745 220.053 245.099 219.943 248.188 219.963C253.432 219.962 258.675 220.009 263.918 220.105C274.009 220.357 284.086 221.142 294.16 221.423C309.135 221.841 324.162 221.381 339.14 222.056C340.557 222.12 345.23 222.697 346.782 222.092C349.02 220.024 353.295 209.454 354.299 207.131C367.401 176.343 378.29 144.66 386.883 112.322C389.191 103.819 391.395 95.2873 393.496 86.7301C394.671 81.8634 395.909 75.5447 397.316 70.8833ZM239.689 227.996C241.942 234.111 243.94 240.275 246.306 246.352C252.159 261.38 259.623 276.943 268.375 290.508C273.358 298.292 278.991 306.369 285.246 313.171C288.06 309.946 291.249 307.043 294.045 303.893C310.989 284.804 325.534 263.672 337.649 241.21C339.746 237.322 344.637 228.832 345.635 224.805C343.301 224.765 341.362 224.776 339.03 224.888C327.463 225.162 316.139 226.152 304.572 226.165C288.268 226.182 271.95 226.297 255.676 227.345C250.958 227.649 244.099 227.454 239.689 227.996ZM125.021 216.47C130.525 217.059 136.377 216.753 142.002 217.202C149.395 217.616 156.792 217.947 164.192 218.193C181.317 218.667 198.454 218.165 215.572 219.061C216.18 219.092 217.655 219.086 218.153 218.8C218.314 217.392 213.455 197.473 212.839 194.488C209.992 180.066 207.867 165.51 206.471 150.875C206.182 147.777 204.443 118.049 204.115 117.547L203.768 117.39C193.608 130.041 181.778 141.87 171.562 154.671C158.094 171.546 144.57 188.287 132.288 206.08C129.889 209.556 127.459 213.027 125.021 216.47Z"/></svg>